<svg width="980" height="980" viewBox="0 0 980 980" fill="none" xmlns="http://www.w3.org/2000/svg">
<rect width="980" height="980" fill="white"/>
<line x1="226.536" y1="470.464" x2="625.536" y2="869.464" stroke="black" stroke-width="10"/>
<line x1="630.536" y1="604.536" x2="332.536" y2="902.536" stroke="black" stroke-width="10"/>
<line x1="406.536" y1="328.536" x2="108.536" y2="626.536" stroke="black" stroke-width="10"/>
<rect x="20.0711" y="602.725" width="142" height="142" transform="rotate(-45 20.0711 602.725)" fill="white" stroke="black" stroke-width="10"/>
<rect x="141.693" y="481.103" width="142" height="142" transform="rotate(-45 141.693 481.103)" fill="white" stroke="black" stroke-width="10"/>
<rect x="263.316" y="359.48" width="142" height="142" transform="rotate(-45 263.316 359.48)" fill="white" stroke="black" stroke-width="10"/>
<rect x="268.973" y="608.382" width="142" height="142" transform="rotate(-45 268.973 608.382)" fill="black" stroke="black" stroke-width="10"/>
<rect x="627.06" y="507.994" width="142" height="142" transform="rotate(45 627.06 507.994)" fill="black" stroke="black" stroke-width="10"/>
<rect x="389.181" y="735.661" width="152" height="152" transform="rotate(-45 389.181 735.661)" fill="black"/>
<rect x="499.781" y="635.273" width="142" height="142" transform="rotate(45 499.781 635.273)" fill="black" stroke="black" stroke-width="10"/>
<rect x="523.531" y="862.94" width="142" height="142" transform="rotate(-45 523.531 862.94)" fill="black" stroke="black" stroke-width="10"/>
<rect x="372.502" y="762.553" width="142" height="142" transform="rotate(45 372.502 762.553)" fill="black" stroke="black" stroke-width="10"/>
<circle cx="764.5" cy="487.5" r="69.5" fill="white" stroke="black" stroke-width="10"/>
</svg>
